<svg width="33" height="35" viewBox="0 0 33 35" fill="none" xmlns="http://www.w3.org/2000/svg">
<path d="M16.9875 23.8563V27.6031M16.9875 10.7422V6.99531M16.9875 6.99531C18.5395 6.99531 19.7977 5.73717 19.7977 4.18516C19.7977 2.63314 18.5395 1.375 16.9875 1.375C15.4355 1.375 14.1773 2.63314 14.1773 4.18516C14.1773 5.73717 15.4355 6.99531 16.9875 6.99531ZM31.975 33.2234V31.35C31.975 29.2806 30.2975 27.6031 28.2281 27.6031H5.74687C3.67753 27.6031 2 29.2806 2 31.35V33.2234H31.975ZM15.1141 17.2992C15.1141 18.3339 14.2753 19.1727 13.2406 19.1727C12.206 19.1727 11.3672 18.3339 11.3672 17.2992C11.3672 16.2645 12.206 15.4258 13.2406 15.4258C14.2753 15.4258 15.1141 16.2645 15.1141 17.2992ZM22.6078 17.2992C22.6078 18.3339 21.7691 19.1727 20.7344 19.1727C19.6997 19.1727 18.8609 18.3339 18.8609 17.2992C18.8609 16.2645 19.6997 15.4258 20.7344 15.4258C21.7691 15.4258 22.6078 16.2645 22.6078 17.2992ZM9.49375 23.8563H24.4812C26.5506 23.8563 28.2281 22.1788 28.2281 20.1094V14.4891C28.2281 12.4197 26.5506 10.7422 24.4812 10.7422H9.49375C7.42441 10.7422 5.74687 12.4197 5.74687 14.4891V20.1094C5.74687 22.1788 7.42441 23.8563 9.49375 23.8563Z" stroke="white" stroke-width="2.07"/>
</svg>
