<!DOCTYPE svg PUBLIC "-//W3C//DTD SVG 1.1//EN" "http://www.w3.org/Graphics/SVG/1.1/DTD/svg11.dtd">
<svg fill="#FFFFFF" width="800px" height="800px" viewBox="0 0 100 100" id="Layer_1" version="1.1" xml:space="preserve" xmlns="http://www.w3.org/2000/svg" xmlns:xlink="http://www.w3.org/1999/xlink" stroke="#FFFFFF" stroke-width="3.5">
<g id="SVGRepo_bgCarrier" stroke-width="0"/>
<g id="SVGRepo_tracerCarrier" stroke-linecap="round" stroke-linejoin="round"/>
<g id="SVGRepo_iconCarrier"> <g> <path d="M72,28c-6.627,0-12,5.373-12,12c0,2.205,0.6,4.27,1.64,6.04C57.49,47.02,53.38,47.5,50,47.5s-7.49-0.48-11.64-1.46 C39.4,44.27,40,42.205,40,40c0-6.627-5.373-12-12-12s-12,5.373-12,12c0,4.418,2.391,8.291,5.95,10.36 C19.34,52.23,18,54.5,18,57c0,4.971,4.029,9,9,9c2.761,0,5.23-1.248,6.87-3.2C36.62,64.11,40.13,65,44,65h12 c3.87,0,7.38-0.89,10.13-2.2C67.77,64.752,70.239,66,73,66c4.971,0,9-4.029,9-9c0-2.5-1.34-4.77-3.95-6.64 C81.609,48.291,84,44.418,84,40C84,33.373,78.627,28,72,28z M50,61H38c-3.31,0-6-2.69-6-6s2.69-6,6-6h12V61z M62,49H38 c-1.1,0-2-0.9-2-2s0.9-2,2-2h24c1.1,0,2,0.9,2,2S63.1,49,62,49z"/> </g> </g>
</svg>
