<svg width="24" height="23" viewBox="0 0 24 23" fill="none" xmlns="http://www.w3.org/2000/svg">
<path d="M12 16.5C14.0711 16.5 15.75 14.8211 15.75 12.75C15.75 10.6789 14.0711 9 12 9C9.92893 9 8.25 10.6789 8.25 12.75C8.25 14.8211 9.92893 16.5 12 16.5Z" stroke="white" stroke-width="1.5"/>
<path d="M9.5 21.4997H14.5C18.0111 21.4997 19.7668 21.4997 21.0279 20.6571C21.5738 20.2922 22.0425 19.8235 22.4074 19.2776C23.25 18.0165 23.25 16.2609 23.25 12.7497C23.25 9.23861 23.2499 7.48328 22.4071 6.22215C22.0424 5.6762 21.5736 5.20745 21.0276 4.84265C19.7665 4 18.011 4 14.4999 4H9.49981C5.98866 4 4.23308 4 2.97196 4.84265C2.42601 5.20745 1.95726 5.6762 1.59246 6.22215C0.75 7.48299 0.75 9.23774 0.75 12.7474V12.7497C0.75 16.2609 0.75 18.0165 1.59265 19.2776C1.95744 19.8235 2.4262 20.2922 2.97215 20.6571C4.23326 21.4997 5.98884 21.4997 9.5 21.4997Z" stroke="white" stroke-width="1.5"/>
<path d="M19.5 9H18.875" stroke="white" stroke-width="1.5" stroke-linecap="round"/>
<path d="M15.125 0.875H8.875" stroke="white" stroke-width="1.5" stroke-linecap="round"/>
</svg>
