<svg width="50" height="50" viewBox="0 0 50 50" fill="none" xmlns="http://www.w3.org/2000/svg">
<path d="M48.125 25C49.1605 25 50.0073 25.8408 49.9297 26.8734C49.5332 32.1518 47.4688 37.1866 44.0102 41.2362C40.1443 45.7626 34.7902 48.761 28.9109 49.6922C23.0316 50.6234 17.0129 49.4262 11.9375 46.316C6.86213 43.2058 3.06304 38.3867 1.22359 32.7254C-0.615861 27.0642 -0.374941 20.9324 1.90301 15.4329C4.18096 9.93345 8.34645 5.42725 13.6502 2.72484C18.954 0.0224234 25.048 -0.69885 30.8361 0.690752C36.0145 1.93398 40.644 4.79379 44.0674 8.83107C44.7372 9.62088 44.5463 10.7988 43.7085 11.4075C42.8708 12.0161 41.7042 11.824 41.0241 11.0432C38.1332 7.724 34.2706 5.37186 29.9607 4.33714C25.0408 3.15598 19.8609 3.76906 15.3527 6.06611C10.8445 8.36316 7.30382 12.1934 5.36756 16.868C3.4313 21.5425 3.22652 26.7546 4.79005 31.5666C6.35358 36.3787 9.58281 40.4749 13.8969 43.1186C18.211 45.7623 23.3268 46.7799 28.3242 45.9884C33.3216 45.1969 37.8726 42.6482 41.1586 38.8008C44.0372 35.4304 45.7796 31.2571 46.1674 26.8726C46.2586 25.8411 47.0895 25 48.125 25Z" fill="url(#paint0_linear_10594_316)"/>
<defs>
<linearGradient id="paint0_linear_10594_316" x1="25" y1="0" x2="25" y2="50" gradientUnits="userSpaceOnUse">
<stop stop-color="#00BFFF"/>
<stop offset="1" stop-color="#00CC99"/>
</linearGradient>
</defs>
</svg>
