<svg width="33" height="31" viewBox="0 0 33 31" fill="none" xmlns="http://www.w3.org/2000/svg">
<path d="M20.9854 28.9854V1.98535V28.9854Z" fill="#fff" fill-opacity="0.96"/>
<path d="M20.9854 28.9854V1.98535" stroke="#fff" stroke-opacity="0.96" stroke-width="2.5" stroke-linecap="round"/>
<path d="M3.24271 3.74271C1.48535 5.50008 1.48535 8.32849 1.48535 13.9854V16.9854C1.48535 22.6422 1.48535 25.4707 3.24271 27.228C5.00008 28.9854 7.82849 28.9854 13.4854 28.9854H19.4854C25.1422 28.9854 27.9707 28.9854 29.728 27.228C31.4854 25.4707 31.4854 22.6422 31.4854 16.9854V13.9854C31.4854 8.32849 31.4854 5.50008 29.728 3.74271C27.9707 1.98535 25.1422 1.98535 19.4854 1.98535H13.4854C7.82849 1.98535 5.00008 1.98535 3.24271 3.74271Z" stroke="#fff" stroke-opacity="0.96" stroke-width="2.5"/>
</svg>
