<svg width="24" height="24" viewBox="0 0 24 24" fill="none" xmlns="http://www.w3.org/2000/svg">
<g clip-path="url(#clip0_5137_14562)">
<path d="M12.7999 12.8L11.0999 14.5L9.49993 12.9L11.1999 11.2C11.3444 11.0074 11.4145 10.7692 11.3974 10.5291C11.3803 10.289 11.2772 10.0631 11.107 9.89287C10.9368 9.72266 10.7109 9.61956 10.4708 9.60249C10.2307 9.58543 9.9925 9.65555 9.79993 9.79998L8.09993 11.5L7.44993 10.85C7.36093 10.753 7.25276 10.6755 7.13226 10.6226C7.01175 10.5696 6.88156 10.5422 6.74993 10.5422C6.61829 10.5422 6.4881 10.5696 6.3676 10.6226C6.2471 10.6755 6.13892 10.753 6.04993 10.85L4.54993 12.35C4.07899 12.8037 3.70365 13.3472 3.44603 13.9483C3.18842 14.5494 3.05373 15.196 3.04993 15.85C3.03169 16.8572 3.34823 17.842 3.94993 18.65L2.29993 20.3C2.20293 20.389 2.12549 20.4971 2.07252 20.6176C2.01954 20.7381 1.99219 20.8683 1.99219 21C1.99219 21.1316 2.01954 21.2618 2.07252 21.3823C2.12549 21.5028 2.20293 21.611 2.29993 21.7C2.38892 21.797 2.4971 21.8744 2.6176 21.9274C2.7381 21.9804 2.86829 22.0077 2.99993 22.0077C3.13156 22.0077 3.26175 21.9804 3.38226 21.9274C3.50276 21.8744 3.61093 21.797 3.69993 21.7L5.29993 20.1C6.15938 20.718 7.19133 21.0503 8.24993 21.05C9.57683 21.0469 10.8503 20.5267 11.7999 19.6L13.2999 18.1C13.4883 17.9153 13.5962 17.6637 13.5999 17.4C13.6078 17.268 13.5848 17.136 13.5327 17.0145C13.4806 16.893 13.4009 16.7853 13.2999 16.7L12.4999 15.9L14.1999 14.2C14.3444 14.0074 14.4145 13.7692 14.3974 13.5291C14.3803 13.289 14.2772 13.0631 14.107 12.8929C13.9368 12.7227 13.7109 12.6196 13.4708 12.6025C13.2307 12.5854 12.9925 12.6555 12.7999 12.8ZM10.3999 18.2C9.83071 18.7528 9.06844 19.0621 8.27493 19.0621C7.48141 19.0621 6.71914 18.7528 6.14993 18.2L5.94993 18C5.39031 17.4219 5.06898 16.6543 5.04993 15.85C5.0612 15.0587 5.38468 14.3039 5.94993 13.75L6.74993 12.95L11.1499 17.4L10.3999 18.2Z" fill="#fff" fill-opacity="0.96"/>
<path d="M21.7003 2.29999C21.6113 2.20299 21.5032 2.12555 21.3827 2.07258C21.2622 2.0196 21.132 1.99225 21.0003 1.99225C20.8687 1.99225 20.7385 2.0196 20.618 2.07258C20.4975 2.12555 20.3893 2.20299 20.3003 2.29999L18.6003 3.99999C17.642 3.28567 16.4594 2.93832 15.267 3.02087C14.0745 3.10343 12.9511 3.61042 12.1003 4.44999L10.6003 5.94999C10.4119 6.13462 10.3041 6.38622 10.3003 6.64999C10.2925 6.78196 10.3155 6.91395 10.3676 7.03547C10.4196 7.15698 10.4993 7.26468 10.6003 7.34999L16.4503 13.2C16.5393 13.297 16.6475 13.3744 16.768 13.4274C16.8885 13.4804 17.0187 13.5077 17.1503 13.5077C17.282 13.5077 17.4122 13.4804 17.5327 13.4274C17.6532 13.3744 17.7613 13.297 17.8503 13.2L19.3503 11.75C19.816 11.2844 20.1841 10.7307 20.4331 10.1211C20.682 9.51153 20.8069 8.85841 20.8003 8.19999C20.7963 7.22651 20.5192 6.2737 20.0003 5.44999L21.7003 3.69999C21.7973 3.611 21.8748 3.50282 21.9277 3.38232C21.9807 3.26181 22.0081 3.13162 22.0081 2.99999C22.0081 2.86835 21.9807 2.73816 21.9277 2.61766C21.8748 2.49716 21.7973 2.38898 21.7003 2.29999ZM17.9503 10.3L17.1503 11.1L12.7003 6.64999L13.5003 5.89999C13.7756 5.61417 14.1056 5.38681 14.4707 5.23151C14.8359 5.07622 15.2286 4.99617 15.6253 4.99617C16.0221 4.99617 16.4148 5.07622 16.78 5.23151C17.1451 5.38681 17.4751 5.61417 17.7503 5.89999L17.9503 6.04999C18.4959 6.63302 18.7997 7.40149 18.8003 8.19999C18.804 8.58877 18.7308 8.97444 18.585 9.33484C18.4391 9.69523 18.2234 10.0232 17.9503 10.3Z" fill="#fff" fill-opacity="0.96"/>
</g>
<defs>
<clipPath id="clip0_5137_14562">
<rect width="24" height="24" fill="white"/>
</clipPath>
</defs>
</svg>
