<svg width="44" height="44" viewBox="0 0 44 44" fill="none" xmlns="http://www.w3.org/2000/svg">
<path d="M10 38.4225V21.4225L4.7277 16.5991L0 13.9225V35.4225C0 37.0825 1.345 38.4225 3 38.4225H10Z" fill="#4285F4"/>
<path d="M34 38.4225H41C42.66 38.4225 44 37.0775 44 35.4225V13.9225L38.6451 16.9885L34 21.4225V38.4225Z" fill="#34A853"/>
<path d="M9.99964 21.4225L9.28223 14.7801L9.99964 8.42255L21.9996 17.4225L33.9996 8.42255L34.8022 14.4368L33.9996 21.4225L21.9996 30.4225L9.99964 21.4225Z" fill="#EA4335"/>
<path d="M34 8.42257V21.4226L44 13.9226V9.92257C44 6.21257 39.765 4.09757 36.8 6.32257L34 8.42257Z" fill="#FBBC04"/>
<path d="M0 13.9226L4.59917 17.372L10 21.4226V8.42257L7.2 6.32257C4.23 4.09757 0 6.21257 0 9.92257V13.9226Z" fill="#C5221F"/>
</svg>
