<svg width="44" height="44" viewBox="0 0 44 44" fill="none" xmlns="http://www.w3.org/2000/svg">
<g clip-path="url(#clip0_5137_14682)">
<path d="M3.32651 36.0136L5.26697 39.3653C5.67016 40.0709 6.24976 40.6254 6.93019 41.0286C8.8791 38.5547 10.2357 36.6563 11.0001 35.3332C11.7758 33.9906 12.7292 31.8905 13.8604 29.0331C10.812 28.6318 8.50197 28.4312 6.93019 28.4312C5.42188 28.4312 3.11181 28.6318 0 29.0331C0 29.8143 0.201607 30.5955 0.604817 31.3011L3.32651 36.0136Z" fill="#0066DA"/>
<path d="M37.07 41.0286C37.7505 40.6254 38.3301 40.0709 38.7333 39.3653L39.5397 37.9793L43.3954 31.3011C43.7986 30.5955 44.0002 29.8143 44.0002 29.0331C40.8704 28.6318 38.5645 28.4312 37.0826 28.4312C35.49 28.4312 33.1842 28.6318 30.165 29.0331C31.2828 31.9062 32.2237 34.0062 32.9875 35.3332C33.7581 36.6719 35.119 38.5704 37.07 41.0286Z" fill="#EA4335"/>
<path d="M22.0005 14.9207C24.2555 12.1972 25.8096 10.0971 26.6627 8.62049C27.3496 7.43147 28.1056 5.53301 28.9307 2.92513C28.2503 2.52191 27.4691 2.32031 26.6627 2.32031H17.3384C16.532 2.32031 15.7507 2.54712 15.0703 2.92513C16.1198 5.91611 17.0104 8.04475 17.7419 9.31104C18.5504 10.7104 19.9699 12.5803 22.0005 14.9207Z" fill="#00832D"/>
<path d="M30.1405 29.0331H13.8608L6.93066 41.0286C7.6111 41.4318 8.39231 41.6334 9.19875 41.6334H34.8026C35.6091 41.6334 36.3903 41.4066 37.0707 41.0286L30.1405 29.0331Z" fill="#2684FC"/>
<path d="M22.0002 14.9206L15.07 2.92511C14.3896 3.32832 13.81 3.88271 13.4068 4.58837L0.604817 26.765C0.201607 27.4706 0 28.2518 0 29.0331H13.8604L22.0002 14.9206Z" fill="#00AC47"/>
<path d="M36.9944 15.6767L30.5934 4.58837C30.1903 3.88271 29.6106 3.32832 28.9302 2.92511L22 14.9206L30.1398 29.0331H43.975C43.975 28.2518 43.7734 27.4706 43.3702 26.765L36.9944 15.6767Z" fill="#FFBA00"/>
</g>
<defs>
<clipPath id="clip0_5137_14682">
<rect width="44" height="44" fill="white"/>
</clipPath>
</defs>
</svg>
