<svg width="44" height="45" viewBox="0 0 44 45" fill="none" xmlns="http://www.w3.org/2000/svg">
<g clip-path="url(#clip0_5137_14881)">
<path d="M33.5788 10.9211H10.4209V34.079H33.5788V10.9211Z" fill="white"/>
<path d="M33.579 44.5L44 34.079L38.7895 33.1899L33.579 34.079L32.6279 38.845L33.579 44.5Z" fill="#EA4335"/>
<path d="M0 34.079V41.0263C0 42.9455 1.55447 44.5 3.47368 44.5H10.4211L11.491 39.2895L10.4211 34.079L4.74361 33.1899L0 34.079Z" fill="#188038"/>
<path d="M44 10.9211V3.97368C44 2.05447 42.4455 0.5 40.5263 0.5H33.579C32.9449 3.08429 32.6279 4.98613 32.6279 6.20551C32.6279 7.4249 32.9449 8.99675 33.579 10.9211C35.8837 11.581 37.6206 11.911 38.7895 11.911C39.9584 11.911 41.6952 11.581 44 10.9211Z" fill="#1967D2"/>
<path d="M44.0002 10.9211H33.5791V34.079H44.0002V10.9211Z" fill="#FBBC04"/>
<path d="M33.5788 34.079H10.4209V44.5H33.5788V34.079Z" fill="#34A853"/>
<path d="M33.5789 0.5H3.47368C1.55447 0.5 0 2.05447 0 3.97368V34.0789H10.4211V10.9211H33.5789V0.5Z" fill="#4285F4"/>
<path d="M15.1717 28.8858C14.3062 28.301 13.707 27.4471 13.3799 26.3181L15.3888 25.4902C15.5712 26.185 15.8896 26.7234 16.3441 27.1055C16.7957 27.4876 17.3457 27.6758 17.9883 27.6758C18.6454 27.6758 19.2099 27.476 19.6817 27.0766C20.1536 26.6771 20.3909 26.1676 20.3909 25.551C20.3909 24.92 20.142 24.4047 19.6441 24.0052C19.1462 23.6058 18.5209 23.406 17.7741 23.406H16.6133V21.4173H17.6554C18.298 21.4173 18.8394 21.2437 19.2794 20.8963C19.7194 20.5489 19.9394 20.0742 19.9394 19.4692C19.9394 18.9308 19.7425 18.5023 19.3488 18.181C18.9551 17.8597 18.4573 17.6976 17.8523 17.6976C17.2617 17.6976 16.7928 17.8539 16.4454 18.1694C16.0983 18.4858 15.8373 18.8853 15.687 19.3302L13.6983 18.5023C13.9617 17.7555 14.4451 17.0955 15.1544 16.5252C15.8636 15.955 16.7696 15.6684 17.8696 15.6684C18.683 15.6684 19.4154 15.8247 20.0638 16.1402C20.7123 16.4558 21.2217 16.8929 21.5894 17.4487C21.957 18.0073 22.1394 18.6326 22.1394 19.3273C22.1394 20.0366 21.9686 20.6358 21.627 21.1279C21.2854 21.62 20.8657 21.9963 20.3678 22.2597V22.3784C21.0107 22.6435 21.5691 23.0788 21.983 23.6376C22.4028 24.2021 22.6141 24.8766 22.6141 25.6639C22.6141 26.4513 22.4144 27.1547 22.0149 27.7713C21.6154 28.3879 21.0625 28.8742 20.362 29.2273C19.6586 29.5805 18.8683 29.76 17.9912 29.76C16.9751 29.7629 16.0373 29.4705 15.1717 28.8858ZM27.512 18.9163L25.3062 20.5113L24.2033 18.8381L28.1604 15.9839H29.6773V29.4473H27.512V18.9163Z" fill="#4285F4"/>
</g>
<defs>
<clipPath id="clip0_5137_14881">
<rect width="44" height="44" fill="white" transform="translate(0 0.5)"/>
</clipPath>
</defs>
</svg>
