<svg width="44" height="45" viewBox="0 0 44 45" fill="none" xmlns="http://www.w3.org/2000/svg">
<path d="M39.6507 22.0848L33.4082 18.4484V29.0762H40.3336V23.2728C40.3336 22.7833 40.0733 22.3314 39.6507 22.0848Z" fill="#103262"/>
<path d="M11.917 9.66669H21.0837V17.9167H11.917V9.66669Z" fill="#0084D7"/>
<path d="M21.083 9.66669H30.2497V17.9167H21.083V9.66669Z" fill="#33AFEC"/>
<path d="M30.25 9.66669H39.4167V17.9167H30.25V9.66669Z" fill="#54DAFF"/>
<path d="M21.083 17.9167H30.2497V26.1667H21.083V17.9167Z" fill="#027AD4"/>
<path d="M21.083 26.1667H30.2497V34.4167H21.083V26.1667Z" fill="#0553A4"/>
<path d="M30.25 17.9167H39.4167V26.1667H30.25V17.9167Z" fill="#25A2E5"/>
<path d="M30.25 26.1667H39.4167V34.4167H30.25V26.1667Z" fill="#0262B8"/>
<path opacity="0.019" d="M11.917 34.4166H39.417V22.7181L26.5745 30.0515L11.917 22.7181V34.4166Z" fill="black"/>
<path opacity="0.038" d="M11.917 34.4167H39.417V22.9363L26.5745 30.2697L11.917 22.9363V34.4167Z" fill="black"/>
<path opacity="0.057" d="M11.917 34.4166H39.417V23.1545L26.5745 30.4878L11.917 23.1545V34.4166Z" fill="black"/>
<path opacity="0.076" d="M11.917 34.4167H39.417V23.3727L26.5745 30.706L11.917 23.3727V34.4167Z" fill="black"/>
<path opacity="0.095" d="M11.917 34.4167H39.417V23.5908L26.5745 30.9242L11.917 23.5908V34.4167Z" fill="black"/>
<path opacity="0.114" d="M11.917 34.4167H39.417V23.8099L26.5745 31.1433L11.917 23.8099V34.4167Z" fill="black"/>
<path opacity="0.133" d="M11.917 34.4167H39.417V24.0281L26.5745 31.3614L11.917 24.0281V34.4167Z" fill="black"/>
<path opacity="0.152" d="M11.917 34.4167H39.417V24.2463L26.5745 31.5796L11.917 24.2463V34.4167Z" fill="black"/>
<path opacity="0.171" d="M11.917 34.4167H39.417V24.4644L26.5745 31.7978L11.917 24.4644V34.4167Z" fill="black"/>
<path opacity="0.191" d="M11.917 34.4166H39.417V24.6826L26.5745 32.0159L11.917 24.6826V34.4166Z" fill="black"/>
<path opacity="0.209" d="M11.917 34.4167H39.417V24.9008L26.5745 32.2341L11.917 24.9008V34.4167Z" fill="black"/>
<path opacity="0.229" d="M11.917 34.4166H39.417V25.1189L26.5745 32.4522L11.917 25.1189V34.4166Z" fill="black"/>
<path opacity="0.248" d="M11.917 34.4167H39.417V25.3371L26.5745 32.6704L11.917 25.3371V34.4167Z" fill="black"/>
<path opacity="0.267" d="M11.917 34.4167H39.417V25.5552L26.5745 32.8886L11.917 25.5552V34.4167Z" fill="black"/>
<path opacity="0.286" d="M11.917 34.4167H39.417V25.7734L26.5745 33.1068L11.917 25.7734V34.4167Z" fill="black"/>
<path opacity="0.305" d="M11.917 34.4167H39.417V25.9925L26.5745 33.3258L11.917 25.9925V34.4167Z" fill="black"/>
<path opacity="0.324" d="M11.917 34.4167H39.417V26.2107L26.5745 33.544L11.917 26.2107V34.4167Z" fill="black"/>
<path opacity="0.343" d="M11.917 34.4167H39.417V26.4288L26.5745 33.7622L11.917 26.4288V34.4167Z" fill="black"/>
<path opacity="0.362" d="M11.917 34.4166H39.417V26.647L26.5745 33.9803L11.917 26.647V34.4166Z" fill="black"/>
<path opacity="0.381" d="M11.917 34.4167H39.417V26.8652L26.5745 34.1985L11.917 26.8652V34.4167Z" fill="black"/>
<path opacity="0.4" d="M11.917 34.4166H39.417V27.0833L26.5745 34.4166L11.917 27.0833V34.4166Z" fill="black"/>
<path d="M14.1545 39H38.504C39.516 39 40.3364 38.1851 40.3373 37.1722C40.34 33.0279 40.3336 23.2728 40.3336 23.2728C40.3336 23.2728 40.3272 23.4763 38.7285 24.3838C37.1299 25.2913 13.5156 38.6022 13.5156 38.6022C13.5156 38.6022 13.7301 39 14.1545 39Z" fill="url(#paint0_linear_5137_14949)"/>
<path d="M39.417 9.66667H11.917V7.83333C11.917 6.82042 12.7374 6 13.7503 6H37.5837C38.5966 6 39.417 6.82042 39.417 7.83333V9.66667Z" fill="url(#paint1_linear_5137_14949)"/>
<path d="M11.917 23.4167V37.1667C11.917 38.1796 12.7374 39 13.7503 39H27.5003H38.504C38.9275 39 39.3134 38.8515 39.6232 38.6104L11.917 23.4167Z" fill="url(#paint2_linear_5137_14949)"/>
<path opacity="0.05" d="M19.5427 12.4167H11.917V34.4167H19.5427C21.4063 34.4167 22.917 32.906 22.917 31.0424V15.7909C22.917 13.9274 21.4063 12.4167 19.5427 12.4167Z" fill="black"/>
<path opacity="0.07" d="M19.4456 33.5H11.917V12.7219H19.4456C21.0259 12.7219 22.3065 14.0025 22.3065 15.5828V30.6391C22.3056 32.2194 21.025 33.5 19.4456 33.5Z" fill="black"/>
<path opacity="0.09" d="M19.3475 32.5833H11.917V13.0281H19.3475C20.6437 13.0281 21.6942 14.0786 21.6942 15.3747V30.2367C21.6951 31.5328 20.6437 32.5833 19.3475 32.5833Z" fill="black"/>
<path d="M19.25 31.6666H4.58333C3.57042 31.6666 2.75 30.8462 2.75 29.8333V15.1666C2.75 14.1537 3.57042 13.3333 4.58333 13.3333H19.25C20.2629 13.3333 21.0833 14.1537 21.0833 15.1666V29.8333C21.0833 30.8462 20.2629 31.6666 19.25 31.6666Z" fill="url(#paint3_linear_5137_14949)"/>
<path d="M11.9163 17.6334C9.06451 17.6334 7.34668 19.8123 7.34668 22.5C7.34668 25.1877 9.0581 27.3666 11.9163 27.3666C14.7753 27.3666 16.4858 25.1877 16.4858 22.5009C16.4858 19.8123 14.768 17.6334 11.9163 17.6334ZM11.9163 25.7239C10.2983 25.7239 9.33126 24.2811 9.33126 22.5009C9.33126 20.7208 10.3029 19.2779 11.9163 19.2779C13.5296 19.2779 14.5022 20.7217 14.5022 22.5009C14.5022 24.2802 13.5333 25.7239 11.9163 25.7239Z" fill="white"/>
<defs>
<linearGradient id="paint0_linear_5137_14949" x1="35.6815" y1="23.0106" x2="29.5958" y2="33.522" gradientUnits="userSpaceOnUse">
<stop stop-color="#31ABEC"/>
<stop offset="1" stop-color="#1582D5"/>
</linearGradient>
<linearGradient id="paint1_linear_5137_14949" x1="12.5266" y1="6.90933" x2="37.8449" y2="8.81783" gradientUnits="userSpaceOnUse">
<stop offset="0.042" stop-color="#076DB4"/>
<stop offset="0.85" stop-color="#0461AF"/>
</linearGradient>
<linearGradient id="paint2_linear_5137_14949" x1="25.8072" y1="30.9499" x2="21.6685" y2="38.175" gradientUnits="userSpaceOnUse">
<stop stop-color="#33ACEE"/>
<stop offset="1" stop-color="#1B8EDF"/>
</linearGradient>
<linearGradient id="paint3_linear_5137_14949" x1="3.23583" y1="13.8191" x2="20.5425" y2="31.1258" gradientUnits="userSpaceOnUse">
<stop stop-color="#1784D8"/>
<stop offset="1" stop-color="#0864C5"/>
</linearGradient>
</defs>
</svg>
