<svg width="44" height="44" viewBox="0 0 44 44" fill="none" xmlns="http://www.w3.org/2000/svg">
<mask id="mask0_5137_14988" style="mask-type:alpha" maskUnits="userSpaceOnUse" x="0" y="8" width="44" height="28">
<path d="M10.766 35.75C4.82005 35.75 0 31.0303 0 25.2083C0 19.5141 4.61068 14.8746 10.3759 14.6735C12.7536 10.8235 17.0698 8.25 22 8.25C28.3673 8.25 33.7107 12.5425 35.1765 18.3336C40.056 18.3704 44 22.2551 44 27.0417C44 31.6975 39.875 35.75 35.5744 35.7382L10.766 35.75Z" fill="#C4C4C4"/>
</mask>
<g mask="url(#mask0_5137_14988)">
<path d="M10.767 35.7502C7.39556 35.7502 4.38614 34.2329 2.41211 31.8576L24.8095 22.4586L42.2252 32.264C40.6903 34.2666 38.3721 35.7502 35.751 35.7384C31.7979 35.7502 16.587 35.7502 10.767 35.7502Z" fill="url(#paint0_linear_5137_14988)"/>
<path d="M35.1709 18.308L24.8096 22.4584L42.2253 32.264C43.3403 30.8089 44.001 29.0009 44.001 27.042C44.001 22.2553 40.0571 18.3707 35.1775 18.3338C35.1753 18.3252 35.1731 18.3166 35.1709 18.308Z" fill="url(#paint1_linear_5137_14988)"/>
<path d="M9.71387 14.7163L24.8084 22.4583L35.1699 18.3078C33.6948 12.5298 28.3578 8.25 21.9998 8.25C17.0696 8.25 12.7535 10.8235 10.3758 14.6735C10.1534 14.6813 9.93267 14.6956 9.71387 14.7163Z" fill="url(#paint2_linear_5137_14988)"/>
<path d="M2.41106 31.857L24.8084 22.458L9.71398 14.7161C4.26177 15.2339 0 19.7336 0 25.208C0 27.7289 0.903646 30.043 2.41106 31.857Z" fill="url(#paint3_linear_5137_14988)"/>
</g>
<defs>
<linearGradient id="paint0_linear_5137_14988" x1="6.08611" y1="33.9169" x2="37.443" y2="32.0051" gradientUnits="userSpaceOnUse">
<stop stop-color="#2086B8"/>
<stop offset="1" stop-color="#46D3F6"/>
</linearGradient>
<linearGradient id="paint1_linear_5137_14988" x1="32.767" y1="27.0418" x2="41.5403" y2="20.9113" gradientUnits="userSpaceOnUse">
<stop stop-color="#1694DB"/>
<stop offset="1" stop-color="#62C3FE"/>
</linearGradient>
<linearGradient id="paint2_linear_5137_14988" x1="11.702" y1="10.0833" x2="32.0838" y2="21.9103" gradientUnits="userSpaceOnUse">
<stop stop-color="#0D3D78"/>
<stop offset="1" stop-color="#063B83"/>
</linearGradient>
<linearGradient id="paint3_linear_5137_14988" x1="-0.46809" y1="27.4997" x2="20.0247" y2="19.8892" gradientUnits="userSpaceOnUse">
<stop stop-color="#16589B"/>
<stop offset="1" stop-color="#1464B7"/>
</linearGradient>
</defs>
</svg>
