<svg width="30" height="30" viewBox="0 0 30 30" fill="none" xmlns="http://www.w3.org/2000/svg">
<path d="M13.75 16.25H7.5C7.14583 16.25 6.84896 16.1302 6.60938 15.8906C6.36979 15.651 6.25 15.3542 6.25 15C6.25 14.6458 6.36979 14.349 6.60938 14.1094C6.84896 13.8698 7.14583 13.75 7.5 13.75H13.75V7.5C13.75 7.14583 13.8698 6.84896 14.1094 6.60938C14.349 6.36979 14.6458 6.25 15 6.25C15.3542 6.25 15.651 6.36979 15.8906 6.60938C16.1302 6.84896 16.25 7.14583 16.25 7.5V13.75H22.5C22.8542 13.75 23.151 13.8698 23.3906 14.1094C23.6302 14.349 23.75 14.6458 23.75 15C23.75 15.3542 23.6302 15.651 23.3906 15.8906C23.151 16.1302 22.8542 16.25 22.5 16.25H16.25V22.5C16.25 22.8542 16.1302 23.151 15.8906 23.3906C15.651 23.6302 15.3542 23.75 15 23.75C14.6458 23.75 14.349 23.6302 14.1094 23.3906C13.8698 23.151 13.75 22.8542 13.75 22.5V16.25Z" fill="white" fill-opacity="0.96"/>
</svg>
