<svg width="18" height="22" viewBox="0 0 18 22" fill="none" xmlns="http://www.w3.org/2000/svg">
<path d="M2.66953 8.91436L5.73167 4.77133C7.711 2.09327 8.7007 0.754252 9.6241 1.03721C10.5474 1.32018 10.5474 2.96249 10.5474 6.24712V6.55682C10.5474 7.74151 10.5474 8.33386 10.926 8.70541L10.946 8.72466C11.3327 9.0884 11.9492 9.0884 13.1822 9.0884C15.4011 9.0884 16.5106 9.0884 16.8855 9.7613C16.8917 9.7724 16.8977 9.7837 16.9036 9.795C17.2576 10.4784 16.6152 11.3475 15.3304 13.0857L12.2683 17.2287C10.2889 19.9067 9.2992 21.2458 8.3758 20.9628C7.4525 20.6798 7.4525 19.0375 7.4525 15.7528L7.4526 15.4433C7.4526 14.2585 7.4526 13.6662 7.074 13.2946L7.054 13.2754C6.6673 12.9117 6.05079 12.9117 4.81775 12.9117C2.59888 12.9117 1.48945 12.9117 1.1145 12.2387C1.10829 12.2276 1.10225 12.2164 1.09639 12.205C0.742442 11.5217 1.3848 10.6526 2.66953 8.91436Z" stroke="white" stroke-width="2"/>
</svg>
