<svg width="50" height="50" viewBox="0 0 50 50" fill="none" xmlns="http://www.w3.org/2000/svg">
<path opacity="0.3" d="M50 25C50 38.8071 38.8071 50 25 50C11.1929 50 0 38.8071 0 25C0 11.1929 11.1929 0 25 0C38.8071 0 50 11.1929 50 25ZM7.79542 25C7.79542 34.5018 15.4982 42.2046 25 42.2046C34.5018 42.2046 42.2046 34.5018 42.2046 25C42.2046 15.4982 34.5018 7.79542 25 7.79542C15.4982 7.79542 7.79542 15.4982 7.79542 25Z" fill="#1E7FC8"/>
<path d="M46.1023 25C48.2549 25 50.031 23.2446 49.6968 21.118C49.3907 19.1709 48.8548 17.2623 48.097 15.4329C46.8406 12.3998 44.9991 9.6438 42.6777 7.32233C40.3562 5.00087 37.6002 3.15938 34.5671 1.90301C32.7377 1.14525 30.8291 0.60929 28.882 0.303232C26.7554 -0.0310299 25 1.74506 25 3.89771C25 6.05036 26.7668 7.75153 28.8645 8.23506C29.7913 8.4487 30.701 8.73934 31.5839 9.10504C33.6713 9.96965 35.5679 11.2369 37.1655 12.8345C38.7631 14.4321 40.0303 16.3287 40.895 18.4161C41.2607 19.299 41.5513 20.2087 41.7649 21.1355C42.2485 23.2332 43.9496 25 46.1023 25Z" fill="#1E7FC8"/>
</svg>
