<svg width="12" height="12" viewBox="0 0 12 12" fill="none" xmlns="http://www.w3.org/2000/svg">
<path d="M1.99935 6.03341C1.99935 6.53341 2.09379 7.01953 2.28268 7.49175C2.47157 7.96397 2.76602 8.40008 3.16602 8.80008L3.33268 8.96675V8.00008C3.33268 7.81119 3.39657 7.65286 3.52435 7.52508C3.65213 7.3973 3.81046 7.33341 3.99935 7.33341C4.18824 7.33341 4.34657 7.3973 4.47435 7.52508C4.60213 7.65286 4.66602 7.81119 4.66602 8.00008V10.6667C4.66602 10.8556 4.60213 11.014 4.47435 11.1417C4.34657 11.2695 4.18824 11.3334 3.99935 11.3334H1.33268C1.14379 11.3334 0.98546 11.2695 0.857682 11.1417C0.729905 11.014 0.666016 10.8556 0.666016 10.6667C0.666016 10.4779 0.729905 10.3195 0.857682 10.1917C0.98546 10.064 1.14379 10.0001 1.33268 10.0001H2.49935L2.23268 9.76675C1.6549 9.25564 1.24935 8.6723 1.01602 8.01675C0.782682 7.36119 0.666016 6.70008 0.666016 6.03341C0.666016 4.98897 0.932682 4.04175 1.46602 3.19175C1.99935 2.34175 2.71602 1.68897 3.61602 1.23341C3.77157 1.14453 3.93546 1.13897 4.10768 1.21675C4.2799 1.29453 4.39379 1.4223 4.44935 1.60008C4.5049 1.76675 4.50213 1.93341 4.44102 2.10008C4.3799 2.26675 4.27157 2.39453 4.11602 2.48341C3.47157 2.83897 2.95768 3.33064 2.57435 3.95841C2.19102 4.58619 1.99935 5.27786 1.99935 6.03341ZM9.99935 5.96675C9.99935 5.46675 9.9049 4.98064 9.71601 4.50841C9.52713 4.03619 9.23268 3.60008 8.83268 3.20008L8.66602 3.03341V4.00008C8.66602 4.18897 8.60213 4.3473 8.47435 4.47508C8.34657 4.60286 8.18824 4.66675 7.99935 4.66675C7.81046 4.66675 7.65213 4.60286 7.52435 4.47508C7.39657 4.3473 7.33268 4.18897 7.33268 4.00008V1.33341C7.33268 1.14453 7.39657 0.986192 7.52435 0.858415C7.65213 0.730637 7.81046 0.666748 7.99935 0.666748H10.666C10.8549 0.666748 11.0132 0.730637 11.141 0.858415C11.2688 0.986192 11.3327 1.14453 11.3327 1.33341C11.3327 1.5223 11.2688 1.68064 11.141 1.80841C11.0132 1.93619 10.8549 2.00008 10.666 2.00008H9.49935L9.76602 2.23341C10.3105 2.77786 10.7077 3.36953 10.9577 4.00841C11.2077 4.6473 11.3327 5.30008 11.3327 5.96675C11.3327 7.01119 11.066 7.95841 10.5327 8.80841C9.99935 9.65841 9.28268 10.3112 8.38268 10.7667C8.22713 10.8556 8.06324 10.8612 7.89102 10.7834C7.71879 10.7056 7.6049 10.5779 7.54935 10.4001C7.49379 10.2334 7.49657 10.0667 7.55768 9.90008C7.61879 9.73341 7.72713 9.60564 7.88268 9.51675C8.52713 9.16119 9.04101 8.66953 9.42435 8.04175C9.80768 7.41397 9.99935 6.7223 9.99935 5.96675Z" fill="white"/>
</svg>
